<?xml version="1.0" encoding="UTF-8" standalone="no"?>
<!-- Created with Inkscape (http://www.inkscape.org/) -->

<svg
   xmlns:dc="http://purl.org/dc/elements/1.1/"
   xmlns:cc="http://creativecommons.org/ns#"
   xmlns:rdf="http://www.w3.org/1999/02/22-rdf-syntax-ns#"
   xmlns:svg="http://www.w3.org/2000/svg"
   xmlns="http://www.w3.org/2000/svg"
   xmlns:sodipodi="http://sodipodi.sourceforge.net/DTD/sodipodi-0.dtd"
   xmlns:inkscape="http://www.inkscape.org/namespaces/inkscape"
   width="31.254686mm"
   height="9.71064mm"
   viewBox="0 0 110.74495 34.407779"
   id="svg7495"
   version="1.1"
   inkscape:version="0.91 r13725"
   sodipodi:docname="controlsPrev.svg">
  <defs
     id="defs7497" />
  <sodipodi:namedview
     id="base"
     pagecolor="#ffffff"
     bordercolor="#666666"
     borderopacity="1.0"
     inkscape:pageopacity="0.0"
     inkscape:pageshadow="2"
     inkscape:zoom="5.6"
     inkscape:cx="57.268344"
     inkscape:cy="11.466871"
     inkscape:document-units="px"
     inkscape:current-layer="g6329"
     showgrid="false"
     fit-margin-top="0.5"
     fit-margin-left="0.5"
     fit-margin-right="0.5"
     fit-margin-bottom="0.5"
     inkscape:window-width="1855"
     inkscape:window-height="1056"
     inkscape:window-x="65"
     inkscape:window-y="24"
     inkscape:window-maximized="1" />
  <metadata
     id="metadata7500">
    <rdf:RDF>
      <cc:Work
         rdf:about="">
        <dc:format>image/svg+xml</dc:format>
        <dc:type
           rdf:resource="http://purl.org/dc/dcmitype/StillImage" />
        <dc:title></dc:title>
      </cc:Work>
    </rdf:RDF>
  </metadata>
  <g
     inkscape:label="Layer 1"
     inkscape:groupmode="layer"
     id="layer1"
     transform="translate(-6.7703846,-10.872598)">
    <g
       transform="translate(-8.871848,-180.6432)"
       id="g6541">
      <g
         id="g6315">
        <rect
           style="opacity:1;fill:#ffffff;fill-opacity:1;stroke:#292929;stroke-width:0.5;stroke-linecap:round;stroke-linejoin:miter;stroke-miterlimit:4;stroke-dasharray:none;stroke-dashoffset:0;stroke-opacity:1"
           id="rect9024"
           width="34.732143"
           height="23.214285"
           x="89.442436"
           y="193.48204" />
        <g
           id="g6038-2-7-0"
           transform="matrix(1.6828885,0,0,1.6828885,-345.41352,35.589948)"
           style="stroke:#292929;stroke-opacity:1;fill:#ffffff;fill-opacity:1">
          <rect
             rx="0.45480499"
             y="96.017342"
             x="223.47656"
             height="6.4397225"
             width="6.4397225"
             id="rect5989-61-8-8-8-6"
             style="opacity:1;fill:#ffffff;fill-opacity:1;stroke:#292929;stroke-width:0.40000001;stroke-linecap:round;stroke-linejoin:miter;stroke-miterlimit:4;stroke-dasharray:none;stroke-dashoffset:0;stroke-opacity:1" />
          <path
             inkscape:connector-curvature="0"
             id="path6018-7-9-4-1"
             d="m 224.93656,99.976971 1.76777,-1.76777 1.75198,1.75198"
             style="fill:#ffffff;fill-rule:evenodd;stroke:#292929;stroke-width:0.69999999;stroke-linecap:butt;stroke-linejoin:miter;stroke-miterlimit:4;stroke-dasharray:none;stroke-opacity:1;fill-opacity:1" />
        </g>
        <g
           transform="matrix(-1.6828885,0,0,-1.6828885,417.59617,382.07167)"
           id="g6038-9-7-5-5"
           style="stroke:#292929;stroke-opacity:1;fill:#ffffff;fill-opacity:1">
          <rect
             rx="0.45480499"
             y="96.017342"
             x="223.47656"
             height="6.4397225"
             width="6.4397225"
             id="rect5989-61-8-2-36-0-5"
             style="opacity:1;fill:#ffffff;fill-opacity:1;stroke:#292929;stroke-width:0.40000001;stroke-linecap:round;stroke-linejoin:miter;stroke-miterlimit:4;stroke-dasharray:none;stroke-dashoffset:0;stroke-opacity:1" />
          <path
             inkscape:connector-curvature="0"
             id="path6018-7-0-1-3-4"
             d="m 224.93656,99.976971 1.76777,-1.76777 1.75198,1.75198"
             style="fill:#ffffff;fill-rule:evenodd;stroke:#292929;stroke-width:0.69999999;stroke-linecap:butt;stroke-linejoin:miter;stroke-miterlimit:4;stroke-dasharray:none;stroke-opacity:1;fill-opacity:1" />
        </g>
        <g
           transform="matrix(0,1.6828885,-1.6828885,0,216.01867,-166.43834)"
           id="g6038-9-2-2-6-7"
           style="stroke:#292929;stroke-opacity:1;fill:#ffffff;fill-opacity:1">
          <rect
             rx="0.45480499"
             y="96.017342"
             x="223.47656"
             height="6.4397225"
             width="6.4397225"
             id="rect5989-61-8-2-3-9-1-6"
             style="opacity:1;fill:#ffffff;fill-opacity:1;stroke:#292929;stroke-width:0.40000001;stroke-linecap:round;stroke-linejoin:miter;stroke-miterlimit:4;stroke-dasharray:none;stroke-dashoffset:0;stroke-opacity:1" />
          <path
             inkscape:connector-curvature="0"
             id="path6018-7-0-7-3-0-5"
             d="m 224.93656,99.976971 1.76777,-1.76777 1.75198,1.75198"
             style="fill:#ffffff;fill-rule:evenodd;stroke:#292929;stroke-width:0.69999999;stroke-linecap:butt;stroke-linejoin:miter;stroke-miterlimit:4;stroke-dasharray:none;stroke-opacity:1;fill-opacity:1" />
        </g>
        <g
           transform="matrix(0,-1.6828885,1.6828885,0,-143.83602,596.57133)"
           id="g6038-9-5-1-6-6"
           style="fill:#161616;fill-opacity:1;stroke:#000000;stroke-opacity:1">
          <rect
             rx="0.45480499"
             y="96.017342"
             x="223.47656"
             height="6.4397225"
             width="6.4397225"
             id="rect5989-61-8-2-9-9-3-9"
             style="opacity:1;fill:#161616;fill-opacity:1;stroke:#010100;stroke-width:0.40000001;stroke-linecap:round;stroke-linejoin:miter;stroke-miterlimit:4;stroke-dasharray:none;stroke-dashoffset:0;stroke-opacity:1" />
          <path
             inkscape:connector-curvature="0"
             id="path6018-7-0-2-4-2-3"
             d="m 224.93656,99.976971 1.76777,-1.76777 1.75198,1.75198"
             style="fill:#161616;fill-opacity:1;fill-rule:evenodd;stroke:#ffffff;stroke-width:0.69999999;stroke-linecap:butt;stroke-linejoin:miter;stroke-miterlimit:4;stroke-dasharray:none;stroke-opacity:1" />
        </g>
      </g>
      <g
         transform="translate(-2.5,0)"
         id="g6329"
         style="fill:#ffffff;fill-opacity:1">
        <path
           style="fill:#ffffff;fill-opacity:1;stroke:#292929;stroke-width:0.94909012;stroke-miterlimit:10;stroke-opacity:1"
           inkscape:connector-curvature="0"
           stroke-miterlimit="10"
           d="m 80.675469,201.84829 c 0,-4.19308 -3.399647,-7.5927 -7.592716,-7.5927 -4.19307,0 -7.592716,3.39962 -7.592716,7.5927 l 0,14.23637 c 0,4.19308 3.399646,7.59272 7.592716,7.59272 4.193069,0 7.592716,-3.39964 7.592716,-7.59272 l 0,-14.23637 z"
           id="path4137-3" />
        <rect
           transform="scale(-1,-1)"
           rx="1.0467017"
           y="-206.73219"
           x="-74.073647"
           height="5.4559498"
           width="1.893787"
           id="rect5984"
           style="opacity:1;fill:#292929;fill-opacity:1;stroke:#292929;stroke-width:1.55553222;stroke-linecap:round;stroke-linejoin:miter;stroke-miterlimit:4;stroke-dasharray:none;stroke-dashoffset:0;stroke-opacity:1" />
        <g
           id="g6294"
           transform="matrix(-2.3005836,0,0,-2.3005836,270.00341,682.43527)"
           style="fill:#ffffff;fill-opacity:1;stroke:#292929;stroke-opacity:1">
          <path
             style="fill:#292929;fill-opacity:1;fill-rule:evenodd;stroke:#292929;stroke-width:0.33060497px;stroke-linecap:butt;stroke-linejoin:miter;stroke-opacity:1"
             d="m 84.544185,210.07322 2.115333,0.008 -1.041197,1.19689 z"
             id="path6313"
             inkscape:connector-curvature="0"
             sodipodi:nodetypes="cccc" />
        </g>
      </g>
      <g
         id="g6298"
         transform="matrix(1.0238129,0,0,1.0238129,-1.2655446,-6.4309881)">
        <rect
           y="195.33411"
           x="88.83609"
           height="18.180107"
           width="5.5091228"
           id="rect4300"
           style="opacity:1;fill:#d1d1d1;fill-opacity:1;stroke:none;stroke-width:2.0999999;stroke-linecap:round;stroke-linejoin:miter;stroke-miterlimit:4;stroke-dasharray:none;stroke-dashoffset:0;stroke-opacity:1" />
        <path
           style="fill:none;fill-rule:evenodd;stroke:#b8b8b8;stroke-width:0.54537535px;stroke-linecap:butt;stroke-linejoin:miter;stroke-opacity:1"
           d="m 88.411065,198.36423 c 0.194776,0 5.892005,-2.67819 5.892005,-2.67819"
           id="use5857"
           inkscape:connector-curvature="0"
           sodipodi:nodetypes="cc"
           inkscape:tile-x0="124.38069"
           inkscape:tile-y0="177.00533" />
        <path
           style="fill:none;fill-rule:evenodd;stroke:#b8b8b8;stroke-width:0.54537535px;stroke-linecap:butt;stroke-linejoin:miter;stroke-opacity:1"
           d="m 88.411065,199.96305 c 0.194776,0 5.892005,-2.67818 5.892005,-2.67818"
           id="use5859"
           inkscape:connector-curvature="0"
           sodipodi:nodetypes="cc"
           inkscape:tile-x0="124.38069"
           inkscape:tile-y0="177.00533" />
        <path
           style="fill:none;fill-rule:evenodd;stroke:#b8b8b8;stroke-width:0.54537535px;stroke-linecap:butt;stroke-linejoin:miter;stroke-opacity:1"
           d="m 88.411065,201.56188 c 0.194776,0 5.892005,-2.67818 5.892005,-2.67818"
           id="use5861"
           inkscape:connector-curvature="0"
           sodipodi:nodetypes="cc"
           inkscape:tile-x0="124.38069"
           inkscape:tile-y0="177.00533" />
        <path
           style="fill:none;fill-rule:evenodd;stroke:#b8b8b8;stroke-width:0.54537535px;stroke-linecap:butt;stroke-linejoin:miter;stroke-opacity:1"
           d="m 88.411065,203.16071 c 0.194776,0 5.892005,-2.67819 5.892005,-2.67819"
           id="use5863"
           inkscape:connector-curvature="0"
           sodipodi:nodetypes="cc"
           inkscape:tile-x0="124.38069"
           inkscape:tile-y0="177.00533" />
        <path
           style="fill:none;fill-rule:evenodd;stroke:#b8b8b8;stroke-width:0.54537535px;stroke-linecap:butt;stroke-linejoin:miter;stroke-opacity:1"
           d="m 88.411065,204.75953 c 0.194776,0 5.892005,-2.67818 5.892005,-2.67818"
           id="use5865"
           inkscape:connector-curvature="0"
           sodipodi:nodetypes="cc"
           inkscape:tile-x0="124.38069"
           inkscape:tile-y0="177.00533" />
        <path
           style="fill:none;fill-rule:evenodd;stroke:#b8b8b8;stroke-width:0.54537535px;stroke-linecap:butt;stroke-linejoin:miter;stroke-opacity:1"
           d="m 88.411065,206.35836 c 0.194776,0 5.892005,-2.67819 5.892005,-2.67819"
           id="use5867"
           inkscape:connector-curvature="0"
           sodipodi:nodetypes="cc"
           inkscape:tile-x0="124.38069"
           inkscape:tile-y0="177.00533" />
        <path
           style="fill:none;fill-rule:evenodd;stroke:#b8b8b8;stroke-width:0.54537535px;stroke-linecap:butt;stroke-linejoin:miter;stroke-opacity:1"
           d="m 88.411065,207.95719 c 0.194776,0 5.892005,-2.67818 5.892005,-2.67818"
           id="use5869"
           inkscape:connector-curvature="0"
           sodipodi:nodetypes="cc"
           inkscape:tile-x0="124.38069"
           inkscape:tile-y0="177.00533" />
        <path
           style="fill:none;fill-rule:evenodd;stroke:#b8b8b8;stroke-width:0.54537535px;stroke-linecap:butt;stroke-linejoin:miter;stroke-opacity:1"
           d="m 88.411065,209.55602 c 0.194776,0 5.892005,-2.67819 5.892005,-2.67819"
           id="use5871"
           inkscape:connector-curvature="0"
           sodipodi:nodetypes="cc"
           inkscape:tile-x0="124.38069"
           inkscape:tile-y0="177.00533" />
        <path
           style="fill:none;fill-rule:evenodd;stroke:#b8b8b8;stroke-width:0.54537535px;stroke-linecap:butt;stroke-linejoin:miter;stroke-opacity:1"
           d="m 88.411065,211.15485 c 0.194776,0 5.892005,-2.67819 5.892005,-2.67819"
           id="use5873"
           inkscape:connector-curvature="0"
           sodipodi:nodetypes="cc"
           inkscape:tile-x0="124.38069"
           inkscape:tile-y0="177.00533" />
        <path
           style="fill:none;fill-rule:evenodd;stroke:#b8b8b8;stroke-width:0.54537535px;stroke-linecap:butt;stroke-linejoin:miter;stroke-opacity:1"
           d="m 88.411065,212.75367 c 0.194776,0 5.892005,-2.67818 5.892005,-2.67818"
           id="use5875"
           inkscape:connector-curvature="0"
           sodipodi:nodetypes="cc"
           inkscape:tile-x0="124.38069"
           inkscape:tile-y0="177.00533" />
        <path
           style="fill:none;fill-rule:evenodd;stroke:#b8b8b8;stroke-width:0.54537535px;stroke-linecap:butt;stroke-linejoin:miter;stroke-opacity:1"
           d="m 88.411065,214.3525 c 0.194776,0 5.892005,-2.67819 5.892005,-2.67819"
           id="use5877"
           inkscape:connector-curvature="0"
           sodipodi:nodetypes="cc"
           inkscape:tile-x0="124.38069"
           inkscape:tile-y0="177.00533" />
        <rect
           y="196.16864"
           x="93.911873"
           height="16.863522"
           width="1.3974459"
           id="rect5897"
           style="opacity:1;fill:#ffffff;fill-opacity:1;stroke:none;stroke-width:2.0999999;stroke-linecap:round;stroke-linejoin:miter;stroke-miterlimit:4;stroke-dasharray:none;stroke-dashoffset:0;stroke-opacity:1" />
      </g>
      <g
         id="g4266"
         transform="matrix(0.55836236,0,0,0.55836236,88.880337,188.26219)">
        <g
           id="g4250">
          <rect
             id="rect4252"
             height="41"
             width="62"
             stroke-miterlimit="10"
             y="10"
             x="1"
             style="fill:none;stroke:#000000;stroke-width:2;stroke-miterlimit:10" />
          <line
             id="line4254"
             y2="63"
             x2="42"
             y1="63"
             x1="22"
             stroke-miterlimit="10"
             style="fill:none;stroke:#000000;stroke-width:2;stroke-miterlimit:10" />
          <line
             id="line4256"
             y2="51"
             x2="32"
             y1="63"
             x1="32"
             stroke-miterlimit="10"
             style="fill:none;stroke:#000000;stroke-width:2;stroke-miterlimit:10" />
        </g>
        <line
           id="line4258"
           y2="43"
           x2="64"
           y1="43"
           x1="1"
           stroke-miterlimit="10"
           style="fill:none;stroke:#000000;stroke-width:2;stroke-miterlimit:10" />
      </g>
      <path
         style="opacity:1;fill:#ffffff;fill-opacity:1;stroke:#000000;stroke-width:0.50921202;stroke-linecap:round;stroke-linejoin:miter;stroke-miterlimit:4;stroke-dasharray:none;stroke-dashoffset:0;stroke-opacity:1"
         d="m 93.255856,201.56542 c -0.142317,0 -0.276015,0.027 -0.396883,0.0767 -0.12088,0.0498 -0.228742,0.12213 -0.318736,0.21219 -0.09009,0.0901 -0.162447,0.19787 -0.21217,0.31872 -0.04977,0.12089 -0.07678,0.25457 -0.07678,0.39688 l 0,3.44921 c -0.184172,-0.21766 -0.376803,-0.41029 -0.573526,-0.54841 -0.196726,-0.13813 -0.397698,-0.22165 -0.598634,-0.22165 -0.150685,0 -0.293003,0.025 -0.414385,0.0752 -0.121383,0.0502 -0.221455,0.12539 -0.288442,0.22592 -0.06697,0.0839 -0.125943,0.20072 -0.151074,0.3514 -0.02501,0.15066 -0.01683,0.33502 0.05026,0.55269 0.06697,0.21765 0.243069,0.6278 0.481673,1.10916 0.23857,0.48136 0.540028,1.03405 0.858136,1.53635 0.234398,0.36832 0.468756,0.66968 0.66968,0.90408 0.184173,0.2344 0.334857,0.42702 0.439478,0.62375 0.104676,0.19673 0.162924,0.39721 0.162924,0.64834 0,0.10049 0.03368,0.18437 0.09236,0.24296 0.05855,0.0586 0.142505,0.0924 0.242967,0.0924 l 4.017995,0 c 0.100524,0 0.184362,-0.0337 0.242956,-0.0924 0.05855,-0.0586 0.09184,-0.14249 0.09184,-0.24296 0,-0.40183 0.04184,-0.76167 0.104677,-1.10491 0.06269,-0.3432 0.146464,-0.66964 0.230176,-1.00446 0.08381,-0.3349 0.167384,-0.67786 0.230174,-1.0462 0.06269,-0.36836 0.104677,-0.76195 0.104677,-1.19727 l 0,-1.0045 c 0,-0.14232 -0.02689,-0.27647 -0.07678,-0.39733 -0.04964,-0.12088 -0.122136,-0.22875 -0.212169,-0.31875 -0.09009,-0.0901 -0.197391,-0.162 -0.318271,-0.21167 -0.12088,-0.0496 -0.25503,-0.0767 -0.397346,-0.0767 -0.133898,0 -0.267998,0.0333 -0.368446,0.0668 -0.06697,-0.21766 -0.192505,-0.40164 -0.35994,-0.53138 -0.167435,-0.12971 -0.376537,-0.20554 -0.610935,-0.20554 -0.167423,0 -0.334908,0.0335 -0.468869,0.13403 -0.08381,-0.1339 -0.201061,-0.25112 -0.343365,-0.33483 -0.142317,-0.0839 -0.30979,-0.13404 -0.493951,-0.13404 -0.133897,0 -0.234384,0.0338 -0.334832,0.0672 l 0,-1.40658 c 0,-0.14231 -0.02701,-0.27603 -0.07678,-0.39688 -0.04977,-0.12088 -0.12176,-0.22875 -0.211703,-0.31873 -0.09009,-0.0901 -0.197869,-0.16245 -0.318724,-0.21218 -0.120881,-0.0498 -0.255042,-0.0767 -0.397348,-0.0767 z"
         id="path4246"
         inkscape:connector-curvature="0"
         transform="matrix(1.0487877,0,0,1.0487877,-4.3362712,-10.928327)" />
    </g>
  </g>
</svg>
