<?xml version="1.0" encoding="UTF-8" standalone="no"?>
<svg
   xmlns:dc="http://purl.org/dc/elements/1.1/"
   xmlns:cc="http://creativecommons.org/ns#"
   xmlns:rdf="http://www.w3.org/1999/02/22-rdf-syntax-ns#"
   xmlns:svg="http://www.w3.org/2000/svg"
   xmlns="http://www.w3.org/2000/svg"
   version="1.1"
   id="svg5568"
   viewBox="0 0 174.09389 149.7011"
   height="42.248978mm"
   width="49.133163mm">
  <defs
     id="defs5570" />
  <metadata
     id="metadata5573">
    <rdf:RDF>
      <cc:Work
         rdf:about="">
        <dc:format>image/svg+xml</dc:format>
        <dc:type
           rdf:resource="http://purl.org/dc/dcmitype/StillImage" />
        <dc:title></dc:title>
      </cc:Work>
    </rdf:RDF>
  </metadata>
  <g
     transform="translate(-202.72029,-323.19855)"
     id="layer1">
    <path
       id="path5519-8"
       d="m 284.32031,469.02969 c -17.54283,-9.0092 -32.24501,-22.6064 -46.34694,-36.1894 -9.40644,-9.7671 -17.13353,-21.1674 -23.13908,-33.304 -6.72642,-15.191 -9.57466,-32.2316 -8.25695,-48.7418 3.72932,-11.9234 17.10684,-16.0303 28.08165,-18.3027 12.51652,-2.8531 25.43904,0.6818 36.89789,5.7523 7.48459,-0.054 14.22947,13.9665 21.08663,5.5544 9.13609,-8.8286 21.18973,-14.7318 33.6609,-16.9265 12.22787,-0.8755 24.84623,2.7112 35.04774,9.4161 10.37322,6.6454 11.57995,19.9596 11.89818,31.135 0.44006,15.197 -6.23007,29.6563 -16.28841,40.7786 -11.47074,13.161 -24.25629,25.155 -37.21952,36.8193 -7.98963,4.9775 -12.4337,13.8169 -21.22858,17.3183 -5.63307,0.8294 -8.34013,8.698 -14.19351,6.6904 z m 6.35252,-19.9193 c 26.10616,-18.1859 50.31649,-40.5688 65.6055,-68.805 4.29623,-8.6053 3.62009,-19.2468 -2.11944,-27.0512 -4.67488,-8.392 -14.49703,-12.7347 -23.83162,-10.7746 -14.69619,1.586 -26.73651,12.9706 -31.78021,26.4473 -1.86285,8.7542 -14.90624,11.8039 -18.05097,2.3906 1.78577,-9.6677 -6.28778,-16.037 -14.43402,-19.3413 -11.48558,-5.5229 -26.02449,-6.6889 -37.51987,-0.6475 -7.94027,7.3515 -2.17893,19.2743 0.63605,27.7779 7.42607,17.9854 17.37983,35.2895 30.80191,49.4777 7.68909,7.4088 16.50278,13.5403 24.78614,20.2083 1.75012,1.0478 4.10467,1.5288 5.90653,0.3178 z m 40.47137,-12.6096 c 1.18938,-2.4288 0.90947,2.2436 0,0 z"
       style="fill:#2c3e50;fill-opacity:1" />
  </g>
</svg>
